<?xml version="1.0" encoding="utf-8"?>
<!-- Generator: Adobe Illustrator 21.1.0, SVG Export Plug-In . SVG Version: 6.00 Build 0)  -->
<svg version="1.1" id="Layer_1" xmlns="http://www.w3.org/2000/svg" xmlns:xlink="http://www.w3.org/1999/xlink" x="0px" y="0px"
	 viewBox="0 0 390 195" style="enable-background:new 0 0 390 195;" xml:space="preserve">
<style type="text/css">
	.st0{fill:#C42056;}
	.st1{fill:#FFFFFF;}
	.st2{fill:#D66389;}
	.st3{fill:#C42157;}
	.st4{fill:#D7688D;}
	.st5{fill:#D7658A;}
	.st6{fill:#D7698E;}
	.st7{fill:#D86C90;}
	.st8{fill:#E59FB6;}
	.st9{fill:#E397B0;}
	.st10{fill:#DE84A2;}
	.st11{fill:#E393AD;}
	.st12{fill:#E18CA8;}
</style>
<g>
	<path class="st0" d="M169.8,28.7h50.8c0,5.7,0,11.4,0,17c-0.2,4.6-0.4,9.1-1.2,13.6c-0.8,4.1-2.4,8.1-4.7,11.7
		c-3.4,5.4-8.3,9.6-13.6,13.1c-1.9,1.2-3.8,2.3-5.7,3.3c-0.3,0.2-0.7,0-1-0.2c-1.8-0.9-3.5-1.9-5.2-3c-0.1-0.1-0.2-0.1-0.3-0.2
		c-5.6-3.8-10.7-8.5-14.2-14.3c-1.7-2.8-2.9-5.9-3.5-9.1c-1-5.5-1.6-11-1.9-16.5c0-2.5-0.3-4.9-0.1-7.4
		C169.4,34,169.4,31.3,169.8,28.7L169.8,28.7z"/>
	<path class="st1" d="M170.5,29.6c16.3,0,32.7,0,49,0c0.2,3.8,0.3,7.5,0.2,11.3c0,5.7-0.1,11.4-0.9,17c-1,7.1-4.6,13.8-9.7,18.8
		c-3.9,4-8.6,7.1-13.6,9.8c-0.6,0.4-1.1-0.1-1.7-0.3c-6.5-3.6-12.6-8.3-16.9-14.4c-2.4-3.4-4.2-7.3-4.9-11.5
		C170.2,50.2,169.7,39.8,170.5,29.6L170.5,29.6z"/>
	<path class="st0" d="M172.4,31.7c6.4,0,12.7,0,19.1,0c1.2,0,2.4,0.1,3.6-0.1c7.6,0,15.1,0,22.7,0c0.4,2.8,0.3,5.6,0.4,8.5
		c0,5-0.1,10.1-0.6,15.1c-0.3,2.4-0.5,4.8-1.3,7.1c-1.3,4.4-3.7,8.4-6.7,11.8c-2.6,2.8-5.4,5.3-8.5,7.4c-1.8,1.2-3.7,2.2-5.8,2.8
		c-0.8-0.2-1.6-0.7-2.3-1.1c-3.7-2.2-7.1-4.9-10.4-7.7c-5.6-4.7-8.8-11.8-9.4-19c-0.3-2.9-0.7-5.9-0.8-8.8c-0.2-2.6-0.1-5.2-0.3-7.8
		C172.2,37.1,172.1,34.4,172.4,31.7L172.4,31.7z"/>
	<path class="st1" d="M195.5,32.3c7.2,0,14.4,0,21.6,0c0.4,7.8,0.4,15.7-0.4,23.5c-7.1,0-14.1,0-21.2,0
		C195.5,48,195.5,40.1,195.5,32.3L195.5,32.3z"/>
	<path class="st1" d="M179.9,33.3c0.3,0.1,0.5,0.4,0.8,0.6c0.6,0,1,0.3,1.4,0.8c0.4-0.1,0.8-0.1,1.1-0.2c-0.1,0.5-0.5,0.7-0.8,1
		c0.5-0.1,1.1-0.3,1.6-0.1c1,0.3,2.1,0.3,3.2,0.4c1.1,0.2,2.1-0.4,3.2-0.3c0.5,0.1,0.9,0.5,1.3,0.8c0.1-0.4,0.6-0.9,0.2-1.2
		c-0.9-0.3-2-0.3-2.9-0.4c-1.7-0.2-3.4,0-5.2,0.1c0.2-0.2,0.4-0.4,0.7-0.4c2.1,0,4.2,0,6.3,0c0.6,0,1.3,0,1.6,0.6
		c0.4,0.6-0.3,1.1-0.5,1.6c0.1,0.2,0.2,0.4,0.3,0.6c0.3-0.1,0.6-0.2,0.9-0.3c-0.3,0.8-0.7,1.6-0.3,2.5c-0.9,0-1.8-0.1-2.7-0.2
		c0.6-0.3,1.4-0.3,1.8-0.9c-0.1-0.2-0.1-0.3-0.2-0.5c-0.5,0.1-1.1,0.4-1.6,0.4c-0.5-0.3-0.8-0.8-1.3-1c-0.8-0.2-1.6,0.4-1.6,1.2
		c0.3,0.3,0.5,0.5,0.6,0.9c-1.3,0-2.7,0-4,0c0.3-0.2,0.6-0.4,0.9-0.6c0.2,0.2,0.4,0.3,0.6,0.5c0.3-0.1,0.6-0.2,0.9-0.3
		c-0.1-0.2-0.3-0.4-0.4-0.6c0.1-0.2,0.2-0.5,0.3-0.7c-0.9,0.2-1.8,0.7-2.7,0.5c-0.3-0.2-0.5-0.5-0.7-0.7c-0.1,0.4-0.1,0.9-0.2,1.3
		c-2,0.3-4.1,0.4-6.2,0.5c0.2-0.3,0.3-0.7,0.5-1c0.5,0.2,1,0.6,1.6,0.4c1.1-0.2,2.1-0.4,3.2-0.6c-0.1-0.3-0.2-0.5-0.3-0.8
		c0.2-0.2,0.5-0.3,0.7-0.5c0.3-0.1,0.6-0.3,0.9-0.6c-0.1,0-0.4-0.1-0.5-0.1c0,0.1,0,0.2,0,0.3c-0.5,0.2-0.9,0.5-1.4,0.7
		c-0.6,0.2-1.2,0.2-1.7,0.2c0-0.5-0.1-1-0.3-1.5C179,34.9,179.7,34.2,179.9,33.3L179.9,33.3z"/>
	<path class="st0" d="M201.2,34.5c0.5,1.1,1.2,2.2,1.3,3.4c-0.2,1.4-1.4,2.6-0.9,4.1c0.3-1.3,0.6-2.8,1.9-3.4c1-0.6,2.1,0.4,2.1,1.4
		c0.1,0.9-0.4,1.6-0.8,2.3c-0.2-0.6-0.3-1.3-0.8-1.6c-0.4-0.1-0.9-0.1-1.3,0c-0.4,0.2-0.4,0.6-0.5,1c0.2,0.2,0.4,0.3,0.7,0.5
		c-0.2,0-0.5,0-0.6,0c0.1,0.4,0.1,0.7,0.2,1.1c0.2-0.2,0.5-0.4,0.7-0.6c0.2,0.4,0.5,0.9,0.1,1.3c-0.4,0.3-0.8-0.1-1-0.5
		c-0.3-0.4-0.3-0.9-0.5-1.4c-0.1,0-0.3,0-0.3,0c0.2,1,0.3,2-0.2,2.9c-0.2-0.4-0.4-0.9-0.5-1.3c0-0.5,0.1-1.1,0.2-1.6
		c-0.1,0-0.3,0-0.3,0c-0.2,0.7-0.4,2.1-1.4,1.9c-0.3-0.4-0.2-1,0.2-1.3c0.2,0.2,0.4,0.4,0.7,0.5c0.1-0.4,0.1-0.7,0.2-1.1
		c-0.2,0-0.5,0-0.7,0c0.2-0.2,0.5-0.3,0.7-0.5c-0.2-0.6-0.6-1.2-1.3-1.1c-0.9-0.1-1.2,0.9-1.4,1.6c-0.4-0.5-0.7-1-0.8-1.6
		c-0.2-0.8,0.2-1.9,1.1-2.1c0.9-0.2,1.7,0.4,2.1,1.1c0.5,0.7,0.5,1.5,0.7,2.3c0.4-0.1,0.1-0.7,0.1-1c-0.1-1.2-1.2-2.3-0.9-3.6
		C200.3,36.3,200.8,35.4,201.2,34.5L201.2,34.5z"/>
	<path class="st0" d="M209.4,38.3c-0.3-1.4,0.8-2.5,1.2-3.8c0.4,1.2,1.4,2.3,1.3,3.6c-0.4,1.1-1,2.2-1.1,3.5l0.3,0
		c0.1-1.1,0.4-2.3,1.4-2.9c0.6-0.5,1.7-0.4,2.1,0.3c0.6,1,0.2,2.2-0.5,3c-0.2-0.5-0.3-1.2-0.9-1.4c-0.6-0.2-1.5-0.2-1.7,0.6
		c-0.2,0.4,0.3,0.6,0.5,0.9c-0.2,0-0.5,0-0.6,0c0.1,0.3,0.1,0.7,0.2,1c0.2-0.1,0.4-0.3,0.5-0.4c0.1,0,0.3,0.1,0.4,0.1
		c0,0.4,0,0.7,0,1.1c-1.1,0.2-1.4-1-1.6-1.8c-0.1,0-0.3,0-0.3,0c0.1,0.5,0.3,1.1,0.2,1.6c-0.1,0.4-0.3,0.8-0.5,1.2
		c-0.5-0.9-0.4-2-0.2-3c-0.6,0.6-0.5,1.6-1.3,2c-0.4,0.2-0.6-0.4-0.8-0.6c0.1-0.2,0.3-0.4,0.4-0.6c0.2,0.1,0.5,0.2,0.7,0.3
		c0.1-0.3,0.2-0.6,0.3-0.8c-0.1-0.1-0.3-0.2-0.4-0.2c0.1-0.1,0.3-0.3,0.4-0.4c-0.2-0.7-0.8-1.1-1.5-0.9c-0.8,0-1,1-1.2,1.6
		c-0.4-0.6-0.8-1.3-0.8-2.1c0-0.8,0.6-1.6,1.4-1.6c0.7-0.1,1.4,0.4,1.8,0.9c0.6,0.7,0.6,1.7,0.9,2.5
		C210.5,40.6,209.8,39.5,209.4,38.3L209.4,38.3z"/>
	<path class="st2" d="M179.7,34.9c0.3-0.1,0.4,0,0.3,0.3C179.7,35.3,179.6,35.2,179.7,34.9L179.7,34.9z"/>
	<path class="st3" d="M181,35.7c-0.3,0.1-0.6-0.5-0.3-0.6C181,35.1,181.4,35.6,181,35.7L181,35.7z"/>
	<path class="st3" d="M179.7,35.5c0.3-0.2,0.7,0.2,0.3,0.4C179.7,36.2,179.3,35.7,179.7,35.5L179.7,35.5z"/>
	<path class="st3" d="M179.2,36.8c0-0.3,0.2-0.5,0.4-0.8c0.1,0.3,0.1,0.6,0.2,0.9C179.7,36.9,179.4,36.8,179.2,36.8L179.2,36.8z"/>
	<path class="st1" d="M179.6,41.5c0.1-0.3,0.1-0.7,0.4-0.9c0.6,0.6,1.4,0.8,2.1,1.2c0.4,0.1,0.8,0,1.2,0.1c-0.3,0.3-0.6,0.6-0.9,0.9
		c0.6-0.1,1.2-0.3,1.8-0.1c1,0.3,2,0.3,3,0.4c1.1,0.1,2.1-0.4,3.2-0.3c0.5,0.1,0.8,0.5,1.3,0.8c0.1-0.4,0.4-0.7,0.3-1.1
		c-0.9-0.4-1.9-0.4-2.8-0.5c-1.7-0.3-3.5,0-5.2,0l0-0.3c1.7-0.2,3.5-0.1,5.2-0.1c0.9,0,1.8-0.1,2.7,0.1c0.5,0.1,0.6,0.6,0.8,1
		c-0.3,0.4-0.5,0.8-0.8,1.1c0.2,0.2,0.3,0.3,0.5,0.5c0.3-0.1,0.5-0.2,0.8-0.3c-0.4,0.8-0.7,1.6-0.3,2.5c-0.9,0-1.7-0.1-2.6-0.2
		c0,0,0-0.1,0-0.2c0.7-0.1,1.6-0.3,1.7-1.1c-0.6,0-1.3,0.3-1.9,0.3c-0.6-0.3-1-1.3-1.9-1.1c-0.8,0.1-1.4,1.3-0.5,1.7
		c0,0.1,0,0.3,0,0.4c-1.3,0.1-2.6,0.1-3.9,0c0.3-0.2,0.6-0.4,0.9-0.6c0.4,0.3,0.8,0.6,1.2,0.3c0.4-0.1,0-0.5-0.1-0.6
		c0.1-0.2,0.2-0.5,0.3-0.7c-0.8,0.2-1.7,0.6-2.5,0.6c-0.4-0.2-0.6-0.5-0.9-0.7c0,0.4-0.1,0.8-0.1,1.2c-2,0.4-4,0.3-6,0.6
		c0-0.2,0-0.5,0-0.7c0.2-0.1,0.4-0.1,0.5-0.2c0.9,0.6,2,0.2,3,0c0.6-0.1,1.1-0.2,1.6-0.5c-0.1-0.2-0.4-0.5-0.5-0.6
		c0.5-0.3,1-0.6,1.5-0.8c0-0.1,0-0.3-0.1-0.4c-0.7,0.8-1.8,1.2-2.9,1.3c0-0.3,0.6-1.1-0.1-1c-0.1,0.1-0.3,0.4-0.3,0.5l0.5,0.1
		c-0.2,0.2-0.4,0.3-0.6,0.5c-0.1-0.5-0.1-1.1-0.3-1.6C178.8,42.4,179.2,41.9,179.6,41.5L179.6,41.5z"/>
	<path class="st3" d="M179.4,42c0.3,0.1,0.6,0.3,0.9,0.5C180,42.4,179.7,42.2,179.4,42L179.4,42z"/>
	<path class="st3" d="M180.6,42.5c0.2-0.2,0.6,0,0.6,0.3C181.1,43.1,180.3,42.8,180.6,42.5L180.6,42.5z"/>
	<path class="st4" d="M179.7,42.8c0.3-0.1,0.5,0,0.3,0.4C179.7,43.2,179.5,43.1,179.7,42.8L179.7,42.8z"/>
	<path class="st0" d="M205.8,43.3c0.5,1.3,1.7,2.6,1.2,4c-0.4,1.1-1,2.1-0.8,3.3c0.3-0.8,0.3-1.7,0.8-2.4c0.4-0.7,1.3-1.3,2.2-1
		c0.8,0.3,1.1,1.2,1,2c-0.1,0.7-0.5,1.2-0.8,1.8c-0.2-0.7-0.5-1.8-1.4-1.7c-0.7-0.1-1.1,0.5-1.3,1c0.2,0.2,0.5,0.3,0.7,0.5
		c-0.2,0-0.5,0-0.7,0.1c0.1,0.4,0.2,0.8,0.4,1.2c0.1-0.2,0.4-0.5,0.5-0.7c0.2,0.3,0.4,0.6,0.5,0.9c-0.3,0.1-0.5,0.6-0.8,0.5
		c-0.7-0.4-0.8-1.3-1-2c-0.1,0-0.3,0.1-0.3,0.1c0.3,1,0.3,2-0.2,2.9c-0.2-0.4-0.4-0.9-0.5-1.3c0-0.6,0.2-1.2,0.2-1.8
		c-0.6,0.6-0.5,1.7-1.3,2.1c-0.8,0.1-0.7-0.9-0.3-1.4c0.2,0.2,0.5,0.4,0.7,0.6c0.1-0.4,0.2-0.7,0.3-1.1c-0.2,0-0.5,0-0.7,0
		c0.2-0.1,0.5-0.3,0.7-0.4c-0.1-0.6-0.6-1.2-1.3-1.1c-0.9-0.1-1.2,0.9-1.3,1.6c-0.6-0.6-1-1.5-0.9-2.4c0.1-0.7,0.6-1.3,1.3-1.4
		c0.7-0.1,1.3,0.3,1.7,0.8c0.7,0.7,0.7,1.8,1.1,2.7c0.3-1.4-0.7-2.6-1-3.9C204.6,45.5,205.4,44.5,205.8,43.3L205.8,43.3z"/>
	<path class="st1" d="M179,49.1c0.5-0.5,0.7-1.1,1-1.7c0.2,0.2,0.4,0.5,0.6,0.7c0.3,0.1,0.6,0.1,0.9,0.2c0.4,0.7,1.1,0.4,1.7,0.4
		c-0.3,0.4-0.6,0.7-0.9,0.9c0.5-0.1,1.1-0.2,1.6-0.1c1,0.3,2.1,0.3,3.2,0.4c1.1,0.2,2.2-0.5,3.3-0.2c0.4,0.2,0.7,0.5,1.1,0.7
		c0.2-0.4,0.3-0.7,0.4-1.1c-1.4-0.4-2.8-0.4-4.2-0.6c-1.4,0-2.8,0.2-4.1,0.1c0.6-0.5,1.5-0.3,2.2-0.3c1.8,0,3.6-0.1,5.5,0
		c0.6,0,1,0.5,1.2,1c-0.2,0.4-0.5,0.8-0.7,1.2c0.1,0.2,0.2,0.4,0.4,0.5c0.3-0.1,0.6-0.2,0.8-0.4c-0.3,0.8-0.7,1.7-0.3,2.5
		c-0.9,0-1.7-0.1-2.6-0.2c0-0.1,0-0.1,0-0.2c0.6-0.1,1.7-0.2,1.6-1.1c-0.6,0-1.2,0.3-1.8,0.3c-0.7-0.3-1-1.3-1.9-1.1
		c-0.6,0.1-1,0.7-1,1.3c0.2,0.3,0.4,0.5,0.6,0.8c-1.4,0.1-2.7,0.1-4.1,0c0.3-0.2,0.6-0.4,0.9-0.6c0.2,0.2,0.4,0.3,0.6,0.5
		c0.3-0.1,0.6-0.2,0.9-0.4c-0.1-0.1-0.3-0.3-0.4-0.4c0.1-0.2,0.2-0.5,0.4-0.7c-0.8,0.2-1.5,0.5-2.3,0.6c-0.5,0.1-0.8-0.4-1.2-0.7
		c0,0.4-0.1,0.8-0.2,1.2c-2,0.4-4.1,0.3-6.1,0.6c0.1-0.2,0.1-0.4,0.2-0.7c0.1-0.1,0.2-0.3,0.3-0.3c0.5,0.2,0.9,0.6,1.5,0.4
		c1.1-0.2,2.1-0.3,3.2-0.6c0-0.3-0.2-0.6-0.3-0.8c0.4-0.3,0.9-0.6,1.4-0.8c0-0.1,0.1-0.3,0.1-0.5c-0.3,0.2-0.6,0.5-0.9,0.6
		c-0.8,0.6-1.7,0.6-2.7,0.7C178.9,50.7,178.4,49.8,179,49.1L179,49.1z"/>
	<path class="st3" d="M179.6,48.9c0.2,0.2,0.5,0.3,0.7,0.5c-0.2,0-0.4,0-0.7,0C179.6,49.2,179.6,49,179.6,48.9L179.6,48.9z"/>
	<path class="st3" d="M180.6,49.4c0.3-0.1,0.5,0,0.6,0.2c0.1,0.4-0.4,0.4-0.6,0.2C180.6,49.7,180.6,49.5,180.6,49.4L180.6,49.4z"/>
	<path class="st5" d="M179.7,49.8c0.3-0.1,0.5,0,0.4,0.3C179.7,50.2,179.6,50.1,179.7,49.8L179.7,49.8z"/>
	<path class="st3" d="M179.3,50.5c0.1-0.1,0.3-0.2,0.5-0.2c0,0.3-0.1,0.6-0.1,0.9C179.4,51,179.1,50.9,179.3,50.5L179.3,50.5z"/>
	<path class="st1" d="M173.8,56.3c7,0,14,0,21,0c0.1,3.6,0,7.2,0,10.9c0,5.4,0,10.8-0.1,16.3c-3.1-1.6-5.9-3.7-8.7-5.8
		c-2-1.7-4.1-3.3-5.9-5.3C176.4,67.8,174.3,62.1,173.8,56.3L173.8,56.3z"/>
	<path class="st1" d="M200.8,57.6c0.3-0.1,0.5,0.2,0.7,0.4c0.2,0.3,0.6,0.2,0.9,0.3c0.2,0.2,0.4,0.4,0.6,0.5c0.4,0,0.9,0,1.3,0
		c-0.3,0.3-0.6,0.6-0.9,0.9c0.6-0.1,1.2-0.3,1.7-0.1c1,0.3,2,0.3,3,0.4c1,0.2,1.9-0.3,2.9-0.3c0.6,0,1.1,0.5,1.5,0.9
		c0.2-0.4,0.3-0.7,0.5-1.1c-1-0.5-2.2-0.4-3.3-0.6c-1.7-0.2-3.4,0.2-5.1-0.1c1-0.3,2.2-0.2,3.2-0.2c1.4,0,2.9,0,4.3,0
		c0.5,0,1.2,0.2,1.3,0.7c0.1,0.6-0.4,1-0.7,1.5c0.2,0.2,0.3,0.3,0.5,0.5c0.2-0.1,0.6-0.2,0.8-0.3c-0.4,0.8-0.6,1.6-0.4,2.4
		c-0.9,0-1.9-0.1-2.8-0.2c0.7-0.2,1.6-0.3,1.9-1c-0.4-0.6-1.1,0-1.7,0.1c-0.7-0.2-1-0.9-1.6-1.2c-0.6-0.1-1.5,0.3-1.5,1.1
		c-0.1,0.4,0.4,0.6,0.6,1c-1.2,0.3-2.5,0.3-3.8,0.1c-0.5-0.2,0.1-0.4,0.3-0.5c0.3-0.1,0.6,0.2,0.9,0.3c0.3-0.1,0.5-0.2,0.8-0.4
		c-0.4-0.3-0.3-0.8-0.1-1.2c-0.8,0.2-1.6,0.6-2.4,0.5c-0.5,0-0.7-0.5-1.1-0.8c0,0.4-0.1,0.9-0.1,1.3c-2,0.3-4,0.3-6.1,0.5
		c0-0.2,0-0.5,0-0.7c0.6-0.5,1.3,0.3,1.9,0.1c1.1-0.2,2.2-0.4,3.2-0.6c-0.1-0.3-0.3-0.6-0.4-0.9c0.3-0.1,0.5-0.3,0.8-0.4
		c0.2-0.1,0.5-0.2,0.7-0.5c-0.1-0.1-0.2-0.3-0.3-0.4c0,0.1-0.1,0.4-0.2,0.6c-0.1,0-0.4,0-0.5,0c-0.1,0.1-0.2,0.3-0.3,0.4
		c-0.8,0.3-1.6,0.4-2.4,0.4c0-0.7-0.1-1.4-0.1-2C200.2,58.9,200.7,58.3,200.8,57.6L200.8,57.6z"/>
	<path class="st0" d="M180.4,60.7c0.2-1,0.8-1.8,1.1-2.8c0.4,1.2,1.6,2.4,1,3.7c-0.4,0.8-0.7,1.6-0.7,2.5c0.3-0.8,0.4-1.8,1.1-2.4
		c0.6-0.6,1.8-0.7,2.2,0.1c0.6,0.9,0.1,1.9-0.5,2.7c-0.2-0.6-0.4-1.5-1.2-1.4c-0.6-0.1-0.9,0.4-1.1,0.8c0.2,0.2,0.5,0.3,0.7,0.5
		c-0.2,0-0.5,0-0.6,0c0,0.2,0.1,0.6,0.2,0.8c0.2-0.1,0.5-0.3,0.7-0.3c0.4,0.4,0.2,1.3-0.4,1.1c-0.6-0.3-0.7-1.2-1-1.8
		c0,0.9,0.2,1.9-0.3,2.7c-0.8-1.1,0-2.5-0.4-3.7C181,62.4,180.4,61.6,180.4,60.7L180.4,60.7z"/>
	<path class="st0" d="M189.7,58.1c0.5,1.1,1.6,2.3,0.9,3.6c-0.4,0.8-0.7,1.5-0.6,2.4c0.3-0.8,0.3-1.8,1.1-2.3
		c0.6-0.7,1.9-0.7,2.3,0.2c0.4,0.8-0.1,1.7-0.5,2.4c-0.2-0.4-0.3-1.1-0.8-1.3c-0.4-0.2-0.9,0-1.3,0.1c0,0.2-0.1,0.4-0.1,0.6
		c0.2,0.1,0.4,0.3,0.6,0.4c-0.2,0-0.5,0-0.6,0c0.1,0.2,0.2,0.7,0.2,0.9c0.1-0.1,0.3-0.4,0.5-0.5c0.2,0.2,0.3,0.4,0.5,0.6
		c-0.1,0.2-0.2,0.5-0.3,0.6c-1,0-1.1-1.1-1.4-1.8c0,0.8,0.2,1.7-0.2,2.4c-0.4-0.1-0.4-0.7-0.6-1c0.1-0.4,0.2-0.9,0.2-1.3
		c-0.4,0.6-0.5,1.7-1.5,1.7c-0.1-0.4-0.2-0.8,0-1.2c0.2,0.1,0.5,0.3,0.7,0.4c0-0.2,0.1-0.6,0.2-0.8c-0.2,0-0.5,0-0.6,0.1
		c0.2-0.2,0.4-0.3,0.6-0.5c-0.2-0.5-0.7-0.9-1.3-0.8c-0.7,0.1-0.8,0.8-1,1.4c-0.3-0.5-0.6-0.9-0.7-1.5c-0.1-0.6,0.2-1.3,0.8-1.6
		c0.6-0.2,1.4,0,1.8,0.5c0.6,0.6,0.6,1.4,1,2.1c0.1-1.2-0.7-2.1-0.9-3.2C188.7,59.9,189.3,59,189.7,58.1L189.7,58.1z"/>
	<path class="st6" d="M200.5,59c0.2-0.2,0.6,0.1,0.5,0.3C200.8,59.5,200.4,59.3,200.5,59L200.5,59z"/>
	<path class="st7" d="M201.6,59.4c0.2-0.2,0.7,0.1,0.5,0.4C201.8,60,201.4,59.7,201.6,59.4L201.6,59.4z"/>
	<path class="st3" d="M200.6,59.7c0.2,0.1,0.3,0.2,0.5,0.2c-0.2,0.2-0.4,0.4-0.6,0.6l0.4,0.1c-0.2,0.2-0.5,0.4-0.8,0.6
		C200.3,60.7,200.5,60.2,200.6,59.7L200.6,59.7z"/>
	<path class="st0" d="M177.9,61.9c0.4-0.7,1.4-0.8,2-0.3c0.8,0.6,1.2,1.6,1.2,2.6c-0.1,0.8-0.4,1.8-1.3,1.9
		c-0.1-0.2-0.2-0.5-0.3-0.6c0.2-0.2,0.3-0.4,0.5-0.6c0.1,0.1,0.3,0.4,0.5,0.5c0.1-0.2,0.2-0.7,0.2-0.9c-0.2,0-0.5,0-0.7,0
		c0.2-0.2,0.5-0.3,0.7-0.5c-0.2-0.4-0.5-0.9-1.1-0.8c-0.8-0.1-1,0.8-1.2,1.4C177.9,63.8,177.4,62.8,177.9,61.9L177.9,61.9z"/>
	<path class="st1" d="M199.9,65.5c0.1-0.3,0.2-0.6,0.3-0.9c0.2,0.2,0.4,0.4,0.7,0.6c0.2,0,0.4,0.1,0.7,0.1c0.1,0.2,0.2,0.3,0.4,0.5
		c0.4,0,0.7,0,1.1-0.1c-0.3,0.3-0.5,0.5-0.8,0.7c0.4-0.1,0.9-0.2,1.3-0.1c0.9,0.2,1.8,0.3,2.8,0.4c0.8,0.1,1.5-0.3,2.3-0.3
		c0.5,0,0.9,0.4,1.3,0.7c0.1-0.3,0.2-0.7,0.3-1c-1.9-0.4-3.8-0.6-5.7-0.4c-0.4,0-0.9,0-1.3-0.1c1.9-0.3,3.8-0.2,5.8-0.2
		c0.6,0,1.3,0,1.6,0.7c0,0.6-0.5,1-0.4,1.6c0.3-0.1,0.6-0.1,1-0.2c-0.4,0.6-0.6,1.3-0.3,2c-0.7,0-1.5-0.1-2.2-0.2
		c0.5-0.2,1.1-0.3,1.5-0.7c-0.1-0.6-0.7-0.2-1-0.2c-0.9,0.4-1.2-1-2.1-0.8c-0.6,0-0.9,0.6-0.9,1.1c0.2,0.2,0.3,0.4,0.5,0.7
		c-1.1,0.1-2.2,0.1-3.3,0c0.2-0.1,0.4-0.3,0.7-0.4c0.4,0.2,0.8,0.3,1.3,0.2c-0.1-0.1-0.2-0.4-0.2-0.6c0.1-0.1,0.2-0.4,0.2-0.5
		c-0.7,0.2-1.5,0.5-2.2,0.4c-0.3-0.2-0.5-0.4-0.7-0.6c0,0.3,0,0.7,0,1c-1.6,0.3-3.3,0.3-4.9,0.4c0-0.2-0.1-0.5-0.2-0.6
		c0.7-0.1,1.4,0.3,2.1,0.1c0.7-0.2,1.6-0.2,2.2-0.6c-0.1-0.1-0.3-0.4-0.4-0.5c0.2-0.1,0.4-0.3,0.6-0.5c0.1,0,0.4-0.1,0.6-0.1
		c0-0.2-0.1-0.4-0.1-0.6c0,0.1-0.1,0.3-0.2,0.4c-0.6,0.3-1.1,0.6-1.7,0.8c-0.1-0.2-0.3-0.5-0.2-0.8l-0.1,0c0.2-0.2,0.3-0.4,0.5-0.6
		c-0.1,0-0.4-0.1-0.6-0.1c0,0.1,0,0.4,0,0.5c-0.1,0.3-0.3,0.6-0.4,1c-0.1-0.5-0.3-1.1-0.2-1.7C199.4,66,199.7,65.8,199.9,65.5
		L199.9,65.5z"/>
	<path class="st0" d="M184.4,68.2c0.1-1.1,0.8-2,1.2-3c0.4,1.1,1.4,2.1,1.1,3.4c-0.3,0.9-0.8,1.7-0.9,2.7c0.1,0,0.2,0,0.2,0
		c0.1-0.9,0.4-1.8,1.1-2.3c0.6-0.5,1.6-0.5,2,0.2c0.6,0.9,0.1,2-0.5,2.8c-0.2-0.6-0.4-1.6-1.2-1.4c-0.6-0.1-1.3,0.6-0.7,1.1
		c-0.2,0.2-0.4,0.5-0.6,0.7l0-0.6c-0.1,0-0.2,0-0.3,0c0.2,0.7,0.3,1.6-0.1,2.3c-0.4,0.1-0.3-0.4-0.5-0.6c-0.1-0.6,0.1-1.2,0.1-1.8
		c-0.4,0.7-0.5,1.9-1.6,1.8c0-0.4,0-0.8,0-1.2c0.3,0.1,0.5,0.2,0.8,0.3c0.1-0.2,0.2-0.5,0.2-0.6c-0.1,0-0.4-0.1-0.5-0.2
		c0.2-0.1,0.4-0.3,0.6-0.5c-0.2-0.5-0.6-0.9-1.2-0.8c-0.8-0.1-0.9,0.8-1.2,1.3c-0.6-0.7-0.9-1.7-0.5-2.6c0.4-0.8,1.6-0.8,2.2-0.2
		c0.7,0.6,0.8,1.5,1,2.4C185.5,70.3,184.6,69.3,184.4,68.2L184.4,68.2z"/>
	<path class="st8" d="M199.9,65.9c0.2-0.2,0.7,0.1,0.5,0.4C200.1,66.6,199.7,66.2,199.9,65.9L199.9,65.9z"/>
	<path class="st9" d="M200.7,66.3c0.2-0.2,0.7,0.1,0.5,0.3C201,66.9,200.5,66.6,200.7,66.3L200.7,66.3z"/>
	<path class="st1" d="M199.1,71.7c0.2,0.1,0.3,0.2,0.5,0.3c0.5,0.2,1,0.4,1.5,0.5c-0.2,0.1-0.3,0.3-0.4,0.4c0.9-0.1,1.9,0.2,2.8,0.3
		c0.6,0,1.1-0.1,1.7-0.2c0.7,0.1,1,0.9,1.7,1c-0.2,0.4-0.2,0.9-0.2,1.3c-0.5,0-1-0.1-1.6-0.1c0.4-0.2,0.9-0.3,1.2-0.7
		c-0.4,0-0.8,0.1-1.2,0.1c-0.5-0.3-0.9-0.7-1.5-0.5c-0.1,0.1-0.2,0.4-0.3,0.5c0.1,0.2,0.2,0.4,0.3,0.7c-0.4,0-0.8,0-1.2,0.1
		c0.1-0.4,0.2-0.7,0.3-1.1c-0.5,0.1-0.9,0.3-1.4,0.4c-0.2-0.2-0.5-0.3-0.7-0.5c0,0.2,0,0.6-0.1,0.7c-1.2,0.2-2.4,0.3-3.7,0.2
		c0.1-0.5,0.5-0.5,0.9-0.2c0.7-0.1,1.4-0.2,2.1-0.3c0,0,0.1,0,0.2,0c0-0.2-0.1-0.3-0.1-0.5c0.3-0.3,0.6-0.5,0.9-0.8
		c-0.6,0.2-1.2,0.5-1.8,0.8c0.1-0.4,0.1-0.7,0.2-1.1c-0.2,0.2-0.5,0.5-0.7,0.7c0-0.1,0-0.3,0-0.4c-0.1-0.4,0.2-0.6,0.4-0.9
		C198.9,72.2,199,71.9,199.1,71.7L199.1,71.7z"/>
	<path class="st3" d="M186.2,72.7c0.1-0.2,0.3-0.3,0.4-0.5l0,0.4c0.2-0.1,0.5-0.4,0.6-0.5c0.3,0.3,0.3,0.8,0.3,1.2
		C187,73.5,186.5,73.2,186.2,72.7L186.2,72.7z"/>
	<path class="st10" d="M199,72.7C199.1,72.8,199.1,72.8,199,72.7L199,72.7z"/>
	<path class="st11" d="M199.5,72.9C200.1,72.5,199.5,73.6,199.5,72.9L199.5,72.9z"/>
	<path class="st12" d="M198.5,73.6c0.2-0.2,0.5-0.5,0.7-0.7c-0.1,0.4-0.1,0.7-0.2,1.1c0.6-0.2,1.2-0.5,1.8-0.8
		c-0.3,0.3-0.6,0.5-0.9,0.8c0,0.2,0.1,0.3,0.1,0.5c0,0-0.1,0-0.2,0c-0.1-0.8-0.9-0.4-1.5-0.5c0-0.3,0-0.6,0.1-0.9
		C198.5,73.3,198.5,73.5,198.5,73.6L198.5,73.6z"/>
	<path class="st1" d="M108.8,100.7c4.2-0.6,8.9-0.2,12.4,2.5c0.5-0.8,0.8-1.7,0.9-2.7c0.6,0,1.1,0,1.7,0c0,1.5,0,3,0,4.5
		c0,1.5,0,3,0,4.4c-0.6,0-1.2,0-1.8,0c-0.4-2.2-1.7-4.3-3.7-5.5c-2.9-2-6.7-2.2-9.9-1.1c-1.9,0.7-3.5,2.1-4.5,3.9
		c-1.1,1.9-1.6,4-1.8,6.2c-0.4,3.8-0.3,7.8,1.1,11.4c0.9,2.2,2.3,4.4,4.5,5.6c1.2,0.7,2.6,1,4,1.1c3.2,0.1,6.5-0.5,9-2.5
		c0.9-0.7,1.6-1.5,2.3-2.4c0.4,0.3,0.7,0.7,1.1,1c-1.1,2.3-3.3,3.8-5.6,4.8c-3.5,1.4-7.4,1.5-11.1,0.8c-4.1-0.8-7.8-3.5-9.9-7.1
		c-1.7-2.8-2.3-6.2-2.2-9.5c0.1-3.7,1.3-7.4,3.7-10.2C101.3,102.9,105,101.2,108.8,100.7L108.8,100.7z"/>
	<path class="st1" d="M223.2,102.7c3-1.7,6.5-2.4,9.9-2.3c2.7,0.1,5.6,0.4,8,1.9c0.5,0.2,0.8,0.7,1.3,0.8c0.4-0.8,0.6-1.7,0.9-2.6
		c0.6,0,1.1,0,1.7,0c0,3,0,5.9,0,8.9c-0.6,0-1.2,0-1.8,0c-0.6-2.3-2-4.3-4.1-5.5c-2.7-1.6-6.1-2-9.1-1.5c-2.6,0.5-4.9,2.1-6.2,4.4
		c-2.1,3.5-2.5,7.8-2.2,11.8c0.3,3.2,1,6.6,3.1,9.2c1.8,2.3,4.8,3.6,7.7,3.6c2.4,0.1,4.9-0.4,6.9-1.8c0.5-0.4,1.1-0.9,1.1-1.6
		c0-2.7,0-5.3,0-8c-1.9-0.2-3.7,0-5.6-0.1c0-0.5,0-1.1,0-1.6c4.5,0,9,0,13.5,0c0,0.5,0,1.1,0,1.6c-0.9,0.1-1.8-0.1-2.7,0.1
		c-0.1,2.9,0,5.8-0.1,8.7c-1.1,1.5-2.9,2.3-4.6,3c-5.6,2.1-12.2,2.2-17.5-0.7c-3.2-1.7-5.7-4.5-7.1-7.8c-1.2-3-1.4-6.4-0.9-9.6
		C216.1,109.1,219.2,105,223.2,102.7L223.2,102.7z"/>
	<path class="st1" d="M62.4,100.5c3.9,0,7.9,0,11.8,0c0,0.6,0,1.1,0,1.7c-1,0-2.1,0-3.1,0c0,6,0,12,0,18c0,2.9,0,6,1.6,8.5
		c1.1,1.7,3.1,2.4,5,2.5c1.9,0.1,3.8,0,5.6-0.8c2-0.9,3.5-2.8,4.1-4.9c0.6-2.1,0.5-4.3,0.5-6.4c0-5.6,0-11.3,0-16.9
		c-1.1,0-2.2,0-3.3,0c0-0.6,0-1.1,0-1.7c2.8,0,5.7,0,8.5,0c0,0.6,0,1.1,0,1.7c-1,0-2.1,0-3.1,0c0,6.6,0,13.1,0,19.7
		c-0.1,2.7-0.6,5.5-2.3,7.6c-2,2.5-5.2,3.6-8.3,3.7c-3.3,0.1-6.9-0.3-9.7-2.3c-3.1-2.2-4.4-6-4.3-9.7c0-6.3,0-12.7,0-19
		c-1,0-1.9,0-2.9,0C62.4,101.6,62.4,101.1,62.4,100.5L62.4,100.5z"/>
	<path class="st1" d="M127.9,100.5c4.7,0,9.5,0,14.2,0c0,0.5,0,1.1,0,1.6c-1.5,0-2.9,0-4.4,0c0,5,0,10.1,0,15.1c5-5,10-10,14.9-15.1
		c-1,0-2.1,0-3.1,0c0-0.5,0-1.1,0-1.6c3.2,0,6.4,0,9.6,0c0,0.5,0,1.1,0,1.6c-1.3,0-2.5,0-3.8,0c-3.8,3.9-7.7,7.7-11.5,11.7
		c-0.3,0.2-0.1,0.4,0.1,0.6c4.4,5.3,8.8,10.7,13.3,16c0.3,0.4,0.6,0.8,1,1.1c1,0,2,0,2.9,0c0,0.6,0,1.1,0,1.7c-4.5,0-9,0-13.5,0
		c0-0.6,0-1.1,0-1.7c1,0,2.1,0,3.1,0c-3.7-4.6-7.3-9.2-11-13.7c-0.7,0.7-1.5,1.3-2.1,2.1c0,3.9,0,7.7,0,11.6c1.5,0,2.9,0,4.4,0
		c0,0.6,0,1.1,0,1.7c-4.7,0-9.5,0-14.2,0c0-0.6,0-1.1,0-1.7c1.3,0,2.7,0,4,0c0.1-0.4,0-0.8,0.1-1.2c0-9.4,0-18.7,0-28.1
		c-1.4,0-2.7,0-4.1,0C127.9,101.6,127.9,101.1,127.9,100.5L127.9,100.5z"/>
	<path class="st1" d="M162.2,100.5c4.7,0,9.4,0,14.2,0c0,0.6,0,1.1,0,1.7c-1.4,0-2.8,0-4.2,0c0,9.8,0,19.5,0,29.3c1.4,0,2.8,0,4.2,0
		c0,0.6,0,1.1,0,1.7c-4.7,0-9.4,0-14.2,0c0-0.6,0-1.1,0-1.7c1.4,0,2.8,0,4.2,0c0-9.8,0-19.5,0-29.3c-1.4,0-2.8,0-4.2,0
		C162.2,101.6,162.2,101.1,162.2,100.5L162.2,100.5z"/>
	<path class="st1" d="M179.3,100.5c3.2,0,6.5,0,9.7,0c5.7,8.6,11.5,17.1,17.2,25.7c0-8,0-16.1,0-24.1c-1.4,0-2.7,0-4.1,0
		c0-0.6,0-1.1,0-1.7c3.4,0,6.8,0,10.1,0c0,0.6,0,1.1,0,1.7c-1.3,0-2.6,0-3.9,0c0,10.3,0,20.6,0,31c-1.3,0-2.7,0-4,0
		c-6.4-9.3-12.8-18.6-19.2-27.8c0,8.7,0,17.4,0,26.2c1.4,0,2.9,0,4.3,0c0,0.6,0,1.1,0,1.7c-3.4,0-6.8,0-10.1,0c0-0.6,0-1.1,0-1.7
		c1.2,0,2.5,0,3.7,0c0-9.8,0-19.5,0-29.3c-1.2,0-2.5,0-3.7,0C179.3,101.6,179.3,101.1,179.3,100.5L179.3,100.5z"/>
	<path class="st1" d="M249.3,100.5c4.2,0,8.5,0,12.7,0c0,0.6,0,1.1,0,1.7c-1.2,0-2.4,0-3.6,0c0,4.6,0,9.2,0,13.8
		c5.3,0.1,10.6,0,15.9,0.1c0-4.6,0-9.2,0-13.8c-1.2,0-2.4,0-3.6,0c0-0.5,0-1.1,0-1.6c4.2,0,8.5,0,12.7,0c0,0.5,0,1.1,0,1.6
		c-1.1,0-2.2,0-3.4,0c0,9.8,0,19.5,0,29.3c1.1,0,2.2,0,3.3,0c0,0.5,0,1.1,0,1.6c-4.2,0-8.5,0-12.7,0c0-0.6,0-1.1,0-1.7
		c1.2,0,2.4,0,3.6,0c0-4.6,0-9.3,0-13.9c-5.3,0-10.6,0-15.8,0c0,4.6,0,9.2,0,13.9c1.2,0,2.4,0,3.6,0c0,0.6,0,1.1,0,1.7
		c-4.2,0-8.5,0-12.7,0c0-0.6,0-1.1,0-1.7c1.1,0,2.2,0,3.3,0c0-6.1,0-12.2,0-18.2c0-1.3,0.1-2.7,0-4c0-2.4,0.1-4.7,0.1-7.1
		c-1.1,0-2.2,0-3.4,0C249.3,101.6,249.3,101.1,249.3,100.5L249.3,100.5z"/>
	<path class="st1" d="M316.4,100.5c3.7,0,7.4,0,11.1,0c3.2,7.9,6.4,15.9,9.6,23.8c3.2-7.9,6.4-15.9,9.6-23.8c3.6,0,7.2,0,10.8,0
		c0,0.6,0,1.1,0,1.7c-1.4,0-2.7,0-4.1,0c0,9.8,0,19.5,0,29.3c1.5,0,3.1-0.1,4.6,0.1v1.6c-4.7,0-9.5,0-14.2,0c0-0.6,0-1.1,0-1.7
		c1.3,0,2.6,0,3.9,0c0-9.3,0-18.6,0-27.9c-3.9,9.7-7.9,19.4-11.8,29.1c-0.3,0-0.6,0-0.9,0c-4.2-9.8-8.4-19.5-12.5-29.3
		c0,9.3,0,18.7,0,28c1.3,0,2.6,0,3.8,0c0,0.6,0,1.1,0,1.7c-3.2,0-6.5,0-9.7,0c0-0.6,0-1.1,0-1.7c1.3,0,2.6,0,3.9,0
		c0-9.8,0-19.5,0-29.3c-1.3,0-2.7,0-4,0C316.4,101.6,316.4,101.1,316.4,100.5L316.4,100.5z"/>
	<path class="st1" d="M315.8,131.5c-0.7,0-1.4,0-2.2,0c-0.8-1.9-1.6-3.8-2.4-5.6c-3.5-8.4-7-16.9-10.5-25.3c-0.8,0-1.7,0-2.5,0
		c-4,10.3-8,20.6-12,30.8c-0.7,0.3-1.6,0-2.3,0.1c-0.1,0.5-0.1,1.1-0.1,1.7c2.8,0,5.7,0,8.5,0c0-0.5,0-1.1,0-1.6c-1.3,0-2.6,0-3.9,0
		c0.9-2.5,1.9-5,2.8-7.4c4.3,0,8.6,0,13,0c1.1,2.5,2,5,3.1,7.4c-1.1,0-2.1,0-3.2,0c0,0.6,0,1.1,0,1.7c3.9,0,7.8,0,11.6,0
		C315.8,132.6,315.8,132,315.8,131.5z M292,122.3c1.9-4.8,3.7-9.7,5.6-14.5c2,4.8,4,9.6,6.1,14.5C299.8,122.3,295.9,122.3,292,122.3
		z"/>
	<path class="st1" d="M58,118.6c-1.6-1.7-4-2.4-6.3-2.8c2.3-0.7,4.6-1.9,5.6-4.1c1.3-3.1,0.5-7.1-2.2-9.2c-1.8-1.5-4.2-1.9-6.5-2
		c-5.5,0-11.1,0-16.6,0v1.7c1.2,0,2.4,0,3.6,0c0,9.8-0.1,19.5-0.1,29.3c-1.2,0-2.4,0-3.5,0v1.7c5.5,0,10.9,0,16.4,0
		c3.1,0,6.4-0.7,8.8-2.7c1.9-1.6,2.9-4,2.9-6.5C60.2,122,59.4,120,58,118.6z M41.3,102.2c1.9,0,3.7,0,5.6,0c1.7,0.1,3.5,0.6,4.5,2.1
		c1,1.6,1,3.5,0.9,5.4c-0.1,1.6-0.5,3.3-1.7,4.4c-1.1,1-2.5,1.3-3.9,1.3c-1.8,0-3.6,0-5.4,0C41.3,111,41.3,106.6,41.3,102.2z
		 M52.5,129.3c-1.4,1.5-3.5,2.1-5.5,2.1c-1.9,0-3.8,0-5.7,0c0-4.8,0-9.6,0-14.4c2,0,4,0,6,0c2,0,4.1,0.8,5.4,2.4
		c1.2,1.4,1.6,3.2,1.5,5C54.3,126.2,53.8,128,52.5,129.3z"/>
	<path class="st1" d="M202.2,144.5c1.3,0,2.5,0,3.8,0c0,4.7,0,9.4,0,14.2c0.5,0,1,0,1.5,0c0,0.2,0,0.6,0,0.8c-1.7,0-3.5,0-5.2,0
		c0-0.3,0-0.5,0-0.8c0.5,0,0.9,0,1.4,0c0-4.5,0-8.9,0-13.4c-0.5,0-1,0-1.4,0C202.2,145,202.2,144.7,202.2,144.5L202.2,144.5z"/>
	<path class="st1" d="M94.6,145.9c3-0.1,5.9,0,8.9-0.1c0.7,0,1.5-0.1,2.2,0c0,1.3,0,2.5,0,3.8c-0.2,0-0.4,0-0.7,0
		c-0.1-1.1-0.3-2.7-1.6-3c-1.5-0.3-3.1-0.1-4.7-0.1c0,1.9,0,3.8,0,5.8c1,0,1.9,0.1,2.9-0.1c0.8-0.3,0.8-1.2,0.9-1.9
		c0.2,0,0.5,0,0.7,0c0,1.6,0,3.1,0,4.6c-0.2,0-0.5,0-0.7,0c-0.1-0.6,0-1.4-0.6-1.7c-1-0.4-2.1-0.2-3.1-0.2c0,1.8,0,3.7,0,5.5
		c1,0,1.9,0,2.9,0c0,0.2,0,0.6,0,0.8c-2.4,0-4.7,0-7.1,0c0-0.2,0.1-0.5,0.2-0.7c0.6-0.1,1.1-0.1,1.7-0.1c0-4,0-8,0-12.1
		c-0.6,0-1.2,0-1.8,0C94.6,146.4,94.6,146,94.6,145.9L94.6,145.9z"/>
	<path class="st1" d="M223.5,148.3c1.2-1.5,3-2.3,4.9-2.5c1.7-0.1,3.5,0.1,5,1.1c0.1-0.3,0.2-0.7,0.3-1c0.2,0,0.5-0.1,0.7-0.1
		c0,1.3,0,2.5,0,3.8c-0.3,0-0.5,0-0.7,0c-0.4-1.3-1.3-2.4-2.6-2.8c-1.6-0.5-3.5-0.5-4.8,0.7c-1.1,1.1-1.5,2.7-1.6,4.2
		c-0.1,1.7,0.1,3.6,1,5.1c1.3,2.3,5,2.6,6.8,0.8c0-1.2,0-2.4,0-3.6c-0.8,0-1.5,0-2.3,0c0-0.2,0-0.5,0-0.7c1.9,0,3.7,0,5.6,0
		c0,0.2,0,0.5,0,0.7c-0.4,0-0.8,0-1.2,0c0,1.2,0.1,2.5,0,3.7c-0.9,1-2.3,1.4-3.6,1.7c-2.4,0.4-5.1,0-7-1.8
		C221.5,155.2,221.4,150.9,223.5,148.3L223.5,148.3z"/>
	<path class="st1" d="M112.4,146.2c0.8-0.4,1.9,0.2,1.8,1.1c0.1,1-1.3,1.6-2,0.9C111.5,147.8,111.7,146.5,112.4,146.2L112.4,146.2z"
		/>
	<path class="st1" d="M180.4,146.2c0.7-0.4,1.8,0,1.8,0.9c0.2,1-1.1,1.8-1.9,1.2C179.6,147.9,179.7,146.6,180.4,146.2L180.4,146.2z"
		/>
	<path class="st1" d="M110.5,150.3c1.2,0,2.4,0,3.7,0c0,2.8,0,5.5,0,8.3c0.5,0,1,0,1.4,0c0,0.3,0,0.5,0,0.8c-1.8,0-3.5,0-5.3,0
		c0-0.2,0.1-0.5,0.1-0.7c0.5-0.1,0.9,0,1.4,0c0-2.5,0-5.1,0-7.6c-0.4,0-0.9,0-1.3,0C110.5,150.8,110.5,150.6,110.5,150.3
		L110.5,150.3z"/>
	<path class="st1" d="M120,150.3c1.3,0,2.5,0,3.8,0c0,0.4,0,0.8,0,1.2c1-0.9,2.4-1.4,3.7-1.2c1.3,0.1,2.5,1.1,2.6,2.5
		c0.1,1.9,0,3.9,0,5.8c0.5,0,1,0,1.5,0.1c0,0.2,0,0.5,0,0.7c-1.8,0-3.6,0-5.4,0c0-0.3,0-0.5,0-0.8c0.5,0,1.1,0,1.6,0
		c0-1.9,0-3.9,0-5.8c0-0.6-0.1-1.2-0.6-1.5c-0.9-0.4-2,0-2.7,0.6c-0.3,0.3-0.7,0.5-0.6,1c0,2,0,3.9,0,5.9c0.5,0,1,0,1.6,0
		c0,0.2,0,0.5,0,0.8c-1.8,0-3.5,0-5.3,0c0-0.2,0-0.5,0-0.7c0.5,0,1-0.1,1.5-0.1c0-2.5,0-5,0-7.6c-0.5,0-1,0-1.4,0
		C120,150.8,120,150.6,120,150.3L120,150.3z"/>
	<path class="st1" d="M153.7,151.5c1.4-1.4,3.9-1.7,5.5-0.4c0.6,0.5,0.8,1.3,0.8,2.1c0,1.8,0,3.6,0,5.4c0.5,0,1,0,1.4,0.1
		c0,0.2,0,0.5,0,0.7c-1.8,0-3.6,0-5.4,0c0-0.3,0-0.5,0-0.8c0.5,0,1,0,1.6,0c0-2,0-4,0-6c0-0.7-0.3-1.4-1.1-1.5
		c-1.1-0.2-2.2,0.5-2.9,1.3c0,2.1,0,4.2,0,6.3c0.5,0,1.1,0,1.6,0c0,0.3,0,0.5,0,0.8c-1.8,0-3.6,0-5.4,0c0-0.2,0-0.5,0-0.7
		c0.5,0,1-0.1,1.5-0.1c0-2.5,0-5,0-7.6c-0.5,0-1,0-1.4,0c0-0.2,0-0.5,0-0.7c1.3,0,2.5,0,3.8,0C153.7,150.7,153.7,151.1,153.7,151.5
		L153.7,151.5z"/>
	<path class="st1" d="M166.6,152c1.5-1.8,4.3-2.2,6.4-1.2c0.6,0.3,0.9,0.9,1,1.6c-0.2,0.5-0.5,1.1-1.1,1.1c-0.7,0.1-1.4-0.4-1.3-1.1
		c0-0.5,0.4-0.8,0.6-1.1c-1-0.5-2.4-0.6-3.2,0.4c-0.9,1.1-0.9,2.6-0.8,3.9c0.1,1.2,0.6,2.5,1.7,3c1.3,0.4,2.7,0,3.7-0.8
		c0.1,0.2,0.2,0.3,0.3,0.5c-2.1,2.3-6.6,1.5-7.8-1.3C165.5,155.2,165.6,153.3,166.6,152L166.6,152z"/>
	<path class="st1" d="M178.5,150.3c1.2,0,2.5,0,3.7,0c0,2.8,0,5.5,0,8.3c0.4,0,0.8,0,1.2,0c0.3,0.1,0.2,0.5,0.3,0.7
		c-1.8,0-3.5,0-5.3,0c0-0.3,0-0.5,0-0.8c0.5,0,1,0,1.4,0c0-2.5,0.1-5.1-0.1-7.6c-0.4,0-0.8,0-1.3,0
		C178.5,150.8,178.5,150.6,178.5,150.3L178.5,150.3z"/>
	<path class="st1" d="M244.3,151.6c0.9-0.8,2.1-1.4,3.3-1.3c0.8,0,1.3,1,1,1.7c-0.3,0.8-1.5,1-2,0.3c-0.3-0.3-0.2-0.8-0.3-1.1
		c-0.7,0.3-1.5,0.7-2,1.3c-0.1,2.1,0,4.2,0,6.3c0.6,0,1.3,0,1.9,0c0,0.2,0,0.5,0.1,0.6c-1.9,0-3.8,0-5.7,0c0-0.2,0.1-0.5,0.1-0.6
		c0.4-0.1,0.9,0,1.3,0c0-2.6,0-5.1,0-7.7c-0.4,0-0.9,0-1.3,0c0-0.2,0-0.5-0.1-0.7c1.2,0,2.5,0,3.7,0
		C244.3,150.7,244.3,151.1,244.3,151.6L244.3,151.6z"/>
	<path class="st1" d="M267.2,150.3c1.2,0,2.3,0,3.5,0c0,2.2,0,4.3,0,6.5c0,0.7,0.2,1.6,1.1,1.8c1,0.4,2.1-0.2,2.8-0.9
		c0-2.2,0-4.4,0-6.6c-0.5,0-1,0-1.5,0c0-0.2,0-0.5,0-0.7c1.3,0,2.5,0,3.8,0c0,2.8,0,5.6,0,8.4c0.4,0,0.7,0,1.1,0c0,0.2,0,0.4,0,0.7
		c-1.1,0-2.3,0-3.4,0c0-0.3,0-0.6,0-0.8c-1.5,1.2-3.9,1.2-5.4,0c-0.8-0.8-0.8-2.1-0.8-3.2c0.1-1.4,0-2.8,0-4.2c-0.4,0-0.8,0-1.2,0
		C267.2,150.8,267.2,150.6,267.2,150.3L267.2,150.3z"/>
	<path class="st1" d="M292.4,151.2c-1.6-1.4-4.2-1.3-5.8,0c0-0.3,0-0.6,0-0.9c-1.2,0-2.5,0-3.7,0v0.7c0.5,0,0.9,0,1.4,0
		c0,4.2,0,8.4,0,12.5c-0.4,0-0.9,0-1.3,0c0,0.2,0,0.5,0,0.7h5.2c0-0.2,0-0.6,0-0.7c-0.5,0-1.1,0-1.6,0c0-1.6,0-3.2,0-4.9
		c0.9,0.5,2,0.8,3,0.7c1.9,0,3.6-1.5,4-3.3C294,154.5,293.8,152.5,292.4,151.2z M291.3,155.3c0,1.2-0.2,2.6-1.3,3.2
		c-1.1,0.6-2.4,0-3.3-0.7c0-1.8-0.1-3.6,0-5.5c0.7-1.1,2.5-1.8,3.6-0.8C291.3,152.5,291.3,154,291.3,155.3z"/>
	<path class="st1" d="M260.7,151.1c-1.2-0.9-2.8-1.1-4.2-0.8c-1.2,0.3-2.3,1.2-2.9,2.3c-0.9,1.8-0.5,4.3,1,5.6
		c1.6,1.4,4.2,1.5,5.9,0.3C263.1,157,263.2,152.9,260.7,151.1z M259.4,157.9c-0.6,1.1-2.3,1.2-3.1,0.2c-0.6-0.7-0.7-1.7-0.7-2.6
		c0-1.2-0.1-2.4,0.4-3.5c0.2-0.4,0.5-0.8,1-0.9c0.8-0.3,1.9-0.1,2.4,0.7c0.5,0.9,0.5,2,0.6,3C260,155.9,260,157,259.4,157.9z"/>
	<path class="st1" d="M145.3,158.2c-0.3,0.2-0.6,0.5-1,0.4c-0.3-2,0-4-0.2-6c-0.2-1.2-1.2-2-2.3-2.2c-1.5-0.2-3.2-0.2-4.5,0.8
		c-0.5,0.4-0.6,1.1-0.4,1.7c0.5,0.8,1.9,0.8,2.2-0.1c0.3-0.6-0.2-1.1-0.6-1.4c1-0.3,2.5-0.7,3.2,0.4c0.5,1,0.1,2.2,0.2,3.3
		c-1.1-0.8-2.6-0.9-3.8-0.5c-0.8,0.2-1.5,0.8-1.8,1.5c-0.2,0.8-0.1,1.8,0.5,2.4c1.4,1.4,4,1.3,5.3-0.1c0.7,1.5,2.8,1.5,3.7,0.2
		C145.6,158.5,145.4,158.3,145.3,158.2z M141.9,157.6c-0.5,0.6-1.3,1-2.2,0.9c-1.7-0.2-1.7-3.1,0-3.4c0.8-0.2,1.6,0.1,2.3,0.6
		C141.9,156.4,142,157,141.9,157.6z"/>
	<path class="st1" d="M197.6,158.2c-0.3,0.2-0.6,0.3-0.9,0.4c-0.4-2,0-4.1-0.2-6.1c-0.2-1.2-1.3-2-2.4-2.2c-1.4-0.2-3-0.2-4.2,0.7
		c-0.6,0.4-1,1.2-0.5,1.9c0.5,0.8,2.1,0.6,2.2-0.4c0.1-0.5-0.3-0.9-0.6-1.3c0.7-0.2,1.5-0.5,2.3-0.2c0.5,0.2,0.9,0.5,1,1.1
		c0.2,1,0.1,1.9,0.1,2.9c-1.1-0.7-2.6-0.9-3.8-0.5c-0.7,0.2-1.4,0.6-1.7,1.2c-0.5,0.9-0.3,2.1,0.4,2.8c1.4,1.4,3.9,1.3,5.3-0.1
		c0.4,0.6,1,1.2,1.7,1.1c0.8,0.1,1.5-0.3,2-1C197.9,158.4,197.7,158.3,197.6,158.2z M193.8,157.9c-0.5,0.5-1.3,0.7-2,0.6
		c-1.2-0.3-1.4-2-0.7-2.9c0.9-0.8,2.3-0.6,3.1,0.2C194.1,156.5,194.5,157.5,193.8,157.9z"/>
</g>
</svg>
